# AST/ASF file generated using VICON BodyLanguage
# -----------------------------------------------
:version 1.10
:name VICON
:units
  mass 1.0
  length 0.45
  angle deg
:documentation
   .ast/.asf automatically generated from VICON data using
   VICON BodyBuilder and BodyLanguage model FoxedUp or BRILLIANT.MOD
:root
   order TX TY TZ RX RY RZ
   axis XYZ
   position 0 0 0  
   orientation 0 0 0 
:bonedata
  begin
     id 1 
     name lhipjoint
     direction 0.710188 -0.616876 0.339259 
     length 2.5669 
     axis 0 0 0  XYZ
  end
  begin
     id 2 
     name lfemur
     direction 0.34202 -0.939693 0  
     length 7.12796  
     axis 0 0 20  XYZ
    dof rx ry rz
    limits (-160.0 20.0)
           (-70.0 70.0)
           (-60.0 70.0)
  end
  begin
     id 3 
     name ltibia
     direction 0.34202 -0.939693 0   
     length 7.58108   
     axis 0 0 20   XYZ
    dof rx
    limits (-10.0 170.0)
  end
  begin
     id 4 
     name lfoot
     direction 0.0669471 -0.183936 0.980656   
     length 2.17365   
     axis -90 7.62852e-016 20   XYZ
    dof rx rz
    limits (-45.0 90.0)
           (-70.0 20.0)
  end
  begin
     id 5 
     name ltoes
     direction 1.53508e-011 -4.21705e-011 1   
     length 1.09427   
     axis -90 7.62852e-016 20   XYZ
    dof rx
    limits (-90.0 20.0)
  end
  begin
     id 6 
     name rhipjoint
     direction -0.700191 -0.625589 0.34405   
     length 2.53115  
     axis 0 0 0  XYZ 
  end
  begin
     id 7 
     name rfemur
     direction -0.34202 -0.939693 0   
     length 7.33006   
     axis 0 0 -20   XYZ
    dof rx ry rz
    limits (-160.0 20.0)
           (-70.0 70.0)
           (-70.0 60.0)
  end
  begin
     id 8 
     name rtibia
     direction -0.34202 -0.939693 0   
     length 7.64926   
     axis 0 0 -20   XYZ
    dof rx
    limits (-10.0 170.0)
 end
 begin
     id 9 
     name rfoot
     direction -0.0688927 -0.189281 0.979503   
     length 2.20493  
     axis -90 -7.62852e-016 -20   XYZ
    dof rx rz
    limits (-45.0 90.0)
           (-20.0 70.0)
  end
  begin
     id 10 
     name rtoes
     direction -1.53567e-011 -4.21933e-011 1   
     length 1.10919   
     axis -90 -7.62852e-016 -20   XYZ
    dof rx
    limits (-90.0 20.0)
  end
  begin
     id 11 
     name lowerback
     direction -0.0167868 0.989873 -0.140959   
     length 2.14596   
     axis 0 0 0   XYZ
    dof rx ry rz
    limits (-20.0 45.0)
           (-30.0 30.0)
           (-30.0 30.0)
  end
  begin
     id 12 
     name upperback
     direction 0.0129109 0.998033 0.0613525   
     length 2.10457   
     axis 0 0 0   XYZ
    dof rx ry rz
    limits (-20.0 45.0)
           (-30.0 30.0)
           (-30.0 30.0)
  end
  begin
     id 13 
     name thorax
     direction 0.0177047 0.991119 0.131797   
     length 2.17652   
     axis 0 0 0   XYZ
    dof rx ry rz
    limits (-20.0 45.0)
           (-30.0 30.0)
           (-30.0 30.0)
  end
  begin
     id 14 
     name lowerneck
     direction -0.0336893 0.997548 0.0613464   
     length 1.8912   
     axis 0 0 0   XYZ
    dof rx ry rz
    limits (-20.0 45.0)
           (-30.0 30.0)
           (-30.0 30.0)
  end
  begin
     id 15 
     name upperneck
     direction 0.0435909 0.997179 -0.0611028   
     length 1.8829   
     axis 0 0 0   XYZ
    dof rx ry rz
    limits (-20.0 45.0)
           (-30.0 30.0)
           (-30.0 30.0)
  end
  begin
     id 16
     name head
     direction 0.0175076 0.999444 -0.0283782  
     length 1.93197  
     axis 0 0 0   XYZ
    dof rx ry rz
    limits (-20.0 45.0)
           (-30.0 30.0)
           (-30.0 30.0)
  end
  begin
     id 17 
     name lclavicle
     direction 0.919164 0.389875 0.0559876  
     length 3.60004  
     axis 0 0 0   XYZ
    dof ry rz
    limits (-20.0 10.0)
           (0.0 20.0)
  end
  begin
     id 18 
     name lhumerus
     direction 1 -4.48958e-011 6.89191e-027   
     length 5.43301   
     axis 180 -30 -90   XYZ
    dof rx ry rz
    limits (-60.0 90.0)
           (-90.0 90.0)
           (-90.0 90.0)
  end
  begin
     id 19
     name lradius
     direction 1 -4.4897e-011 3.24727e-027   
     length 3.15936   
     axis 180 -30 -90   XYZ
    dof rx
    limits (-10.0 170.0)
  end
  begin
     id 20
     name lwrist
     direction 1 -4.4897e-011 9.00228e-027   
     length 1.57968   
     axis -6.29373e-015 90 90   XYZ
    dof ry
    limits (-180.0 0.0)
 end
  begin
     id 21 
     name lhand
     direction 1 -4.48968e-011 1.80042e-026   
     length 0.712827   
     axis -1.14882e-014 90 90   XYZ
    dof rx rz
    limits (-90.0 90.0)
           (-45.0 45.0)
  end
  begin
     id 22 
     name lfingers
     direction 1 -4.49019e-011 3.60267e-026   
     length 0.574699   
     axis -2.29769e-014 90 90   XYZ
    dof rx
    limits (0.0 90.0)
  end
  begin
     id 23
     name lthumb
     direction 0.707107 -6.3498e-011 0.707107   
     length 0.825157   
     axis -90 45 5.37419e-014   XYZ
    dof rx rz
    limits (-45.0 45.0)
           (-45.0 45.0)
  end
  begin
     id 24 
     name rclavicle
     direction -0.890334 0.455305 -0.00132111   
     length 3.51494  
     axis 0 0 0   XYZ 
    dof ry rz
    limits (-10.0 20.0)
           (-20.0 0.0)
  end
  begin
     id 25 
     name rhumerus
     direction -1 -4.48967e-011 5.07175e-028  
     length 5.34194   
     axis 180 30 90   XYZ
    dof rx ry rz
    limits (-90.0 60.0)
           (-90.0 90.0)
           (-90.0 90.0)
  end
  begin
     id 26 
     name rradius
     direction -1 -4.48955e-011 3.30467e-027   
     length 3.19351   
     axis 180 30 90   XYZ
    dof rx
    limits (-10.0 170.0)
  end
  begin
     id 27 
     name rwrist
     direction -1 -4.48968e-011 9.00208e-027   
     length 1.59676   
     axis -6.29373e-015 -90 -90   XYZ
    dof ry
    limits (-180.0 0.0)
  end
  begin
     id 28
     name rhand
     direction -1 -4.49e-011 1.80099e-026   
     length 0.743862   
     axis -1.14882e-014 -90 -90   XYZ
    dof rx rz
    limits (-90.0 90.0)
           (-45.0 45.0)
  end
  begin
     id 29
     name rfingers
     direction -1 -4.49009e-011 3.6023e-026   
     length 0.599721   
     axis -2.29769e-014 -90 -90   XYZ
    dof rx
    limits (0.0 90.0)
  end
  begin
     id 30
     name rthumb
     direction -0.707107 -6.35025e-011 0.707107   
     length 0.861083   
     axis -90 -45 -5.37419e-014   XYZ
    dof rx rz
    limits (-45.0 45.0)
           (-45.0 45.0)
  end
:hierarchy
  begin
    root lhipjoint rhipjoint lowerback
    lhipjoint lfemur
    lfemur ltibia
    ltibia lfoot
    lfoot ltoes
    rhipjoint rfemur
    rfemur rtibia
    rtibia rfoot
    rfoot rtoes
    lowerback upperback
    upperback thorax
    thorax lowerneck lclavicle rclavicle
    lowerneck upperneck
    upperneck head
    lclavicle lhumerus
    lhumerus lradius
    lradius lwrist
    lwrist lhand lthumb
    lhand lfingers
    rclavicle rhumerus
    rhumerus rradius
    rradius rwrist
    rwrist rhand rthumb
    rhand rfingers
  end

#!OML:ASF H:\Martial Arts Walks\Project 1\Capture day 1\Session 1\male.ASF
:FULLY-SPECIFIED
:DEGREES
138
root -0.833458 11.4694 11.2719 9.13807 1.41506 -1.70207
lowerback 18.9678 1.57344 -2.34484
upperback -3.56339 1.69397 1.10364
thorax -14.9036 1.04447 2.05884
lowerneck -9.19217 -3.2598 -5.62943
upperneck 7.57223 -4.12094 5.09445
head 3.98316 -1.93459 2.21586
rclavicle 2.0071e-014 6.95746e-015
rhumerus 39.7469 -2.49523 -63.1623
rradius 93.9424
rwrist 20.8386
rhand 1.31068 -13.9658
rfingers 7.12502
rthumb 26.8452 -42.08
lclavicle 2.0071e-014 6.95746e-015
lhumerus 42.4495 -4.81692 86.6057
lradius 87.4947
lwrist -35.6753
lhand -10.7538 1.94052
lfingers 7.12502
lthumb 15.2577 31.3578
rfemur -73.5604 -5.30904 21.3055
rtibia 108.363
rfoot -33.2679 -17.6351
rtoes -13.3618
lfemur -74.1271 11.7067 -18.2364
ltibia 107.428
lfoot -31.4346 16.5387
ltoes -13.4268
139
root -0.834976 11.4686 11.272 9.13416 1.41326 -1.69827
lowerback 18.9751 1.57504 -2.34478
upperback -3.56616 1.69553 1.1005
thorax -14.9113 1.04508 2.05462
lowerneck -9.2165 -3.25663 -5.62621
upperneck 7.64518 -4.11557 5.06716
head 4.00844 -1.93281 2.20672
rclavicle -1.77664e-015 4.22417e-015
rhumerus 39.7564 -2.49901 -63.1446
rradius 93.938
rwrist 20.8291
rhand 1.31375 -13.9658
rfingers 7.12502
rthumb 26.8481 -42.0796
lclavicle -1.77664e-015 4.22417e-015
lhumerus 42.4518 -4.8111 86.5931
lradius 87.482
lwrist -35.6675
lhand -10.7709 1.93689
lfingers 7.12502
lthumb 15.2412 31.3554
rfemur -73.564 -5.31707 21.3101
rtibia 108.371
rfoot -33.2866 -17.6018
rtoes -13.316
lfemur -74.1284 11.7374 -18.2394
ltibia 107.434
lfoot -31.4459 16.5148
ltoes -13.4372
140
root -0.836445 11.4677 11.2721 9.13105 1.4107 -1.69286
lowerback 18.9812 1.57634 -2.34743
upperback -3.56909 1.69609 1.09765
thorax -14.9185 1.04549 2.05262
lowerneck -9.23834 -3.25219 -5.62097
upperneck 7.71188 -4.10862 5.0396
head 4.0313 -1.93026 2.19734
rclavicle -6.62201e-015 -1.04859e-014
rhumerus 39.7675 -2.50159 -63.1298
rradius 93.9337
rwrist 20.8146
rhand 1.30761 -13.9688
rfingers 7.12502
rthumb 26.8422 -42.0836
lclavicle -6.62201e-015 -1.04859e-014
lhumerus 42.452 -4.80118 86.5816
lradius 87.4756
lwrist -35.6611
lhand -10.793 1.9445
lfingers 7.12502
lthumb 15.2199 31.3647
rfemur -73.5692 -5.32434 21.3119
rtibia 108.38
rfoot -33.3087 -17.5616
rtoes -13.264
lfemur -74.129 11.7663 -18.2441
ltibia 107.44
lfoot -31.4563 16.4942
ltoes -13.4483
141
root -0.837951 11.4669 11.2721 9.12926 1.40766 -1.68955
lowerback 18.9872 1.57788 -2.34942
upperback -3.57243 1.69729 1.09587
thorax -14.9262 1.04621 2.05126
lowerneck -9.25861 -3.24632 -5.6161
upperneck 7.7711 -4.09988 5.01582
head 4.05161 -1.92669 2.18935
rclavicle -1.28154e-014 3.13086e-015
rhumerus 39.7802 -2.50599 -63.1154
rradius 93.9294
rwrist 20.7959
rhand 1.2923 -13.975
rfingers 7.12502
rthumb 26.8276 -42.092
lclavicle -1.28154e-014 3.13086e-015
lhumerus 42.451 -4.78921 86.5725
lradius 87.4769
lwrist -35.6505
lhand -10.8078 1.96033
lfingers 7.12502
lthumb 15.2056 31.3816
rfemur -73.5776 -5.32752 21.316
rtibia 108.388
rfoot -33.3258 -17.5279
rtoes -13.2214
lfemur -74.1332 11.7954 -18.2463
ltibia 107.446
lfoot -31.464 16.474
ltoes -13.4675
142
root -0.839408 11.4659 11.2722 9.12775 1.40422 -1.68694
lowerback 18.9908 1.57898 -2.35095
upperback -3.57549 1.69808 1.09425
thorax -14.9321 1.04669 2.04997
lowerneck -9.27619 -3.23967 -5.61156
upperneck 7.82322 -4.09047 4.99724
head 4.0694 -1.92258 2.18313
rclavicle 6.03808e-015 -9.98893e-015
rhumerus 39.7932 -2.51137 -63.1038
rradius 93.9272
rwrist 20.7779
rhand 1.27008 -13.9836
rfingers 7.12502
rthumb 26.8063 -42.1039
lclavicle 6.03808e-015 -9.98893e-015
lhumerus 42.4486 -4.77468 86.5674
lradius 87.4816
lwrist -35.6403
lhand -10.8226 1.98169
lfingers 7.12502
lthumb 15.1913 31.404
rfemur -73.5846 -5.32949 21.322
rtibia 108.397
rfoot -33.336 -17.5141
rtoes -13.201
lfemur -74.1384 11.8226 -18.2475
ltibia 107.453
lfoot -31.4685 16.4596
ltoes -13.4862
143
root -0.840843 11.4648 11.2724 9.12648 1.40085 -1.68411
lowerback 18.9939 1.58036 -2.35288
upperback -3.57843 1.69917 1.09259
thorax -14.9375 1.04734 2.04878
lowerneck -9.29014 -3.2333 -5.6096
upperneck 7.86689 -4.08167 4.98538
head 4.08425 -1.91857 2.17942
rclavicle 2.08724e-014 -1.02871e-014
rhumerus 39.8062 -2.51971 -63.0935
rradius 93.9263
rwrist 20.7616
rhand 1.24527 -13.9911
rfingers 7.12502
rthumb 26.7826 -42.1149
lclavicle 2.08724e-014 -1.02871e-014
lhumerus 42.4463 -4.75966 86.5668
lradius 87.4884
lwrist -35.6294
lhand -10.8306 2.00496
lfingers 7.12502
lthumb 15.1837 31.4279
rfemur -73.5926 -5.33072 21.3282
rtibia 108.407
rfoot -33.3418 -17.5091
rtoes -13.1975
lfemur -74.1453 11.8471 -18.2483
ltibia 107.462
lfoot -31.4713 16.4466
ltoes -13.5146
144
root -0.842225 11.4638 11.2726 9.12495 1.39909 -1.67986
lowerback 18.9944 1.58203 -2.35457
upperback -3.57992 1.70061 1.08996
thorax -14.9397 1.04802 2.04627
lowerneck -9.29959 -3.22914 -5.60701
upperneck 7.89987 -4.07613 4.97681
head 4.09534 -1.91604 2.17651
rclavicle -9.19379e-016 -1.73937e-015
rhumerus 39.8197 -2.53381 -63.0841
rradius 93.9273
rwrist 20.7495
rhand 1.22213 -13.9961
rfingers 7.12502
rthumb 26.7604 -42.1234
lclavicle -9.19379e-016 -1.73937e-015
lhumerus 42.4446 -4.7474 86.5711
lradius 87.4954
lwrist -35.6156
lhand -10.8404 2.02366
lfingers 7.12502
lthumb 15.1743 31.4473
rfemur -73.5988 -5.33325 21.3324
rtibia 108.418
rfoot -33.3432 -17.5122
rtoes -13.2044
lfemur -74.1495 11.8652 -18.2494
ltibia 107.468
lfoot -31.4739 16.4366
ltoes -13.5444
145
root -0.843614 11.4629 11.2729 9.12161 1.40437 -1.67371
lowerback 18.9952 1.58134 -2.35644
upperback -3.57966 1.69888 1.0878
thorax -14.9398 1.04726 2.04542
lowerneck -9.30738 -3.22699 -5.60431
upperneck 7.92455 -4.07317 4.96872
head 4.10377 -1.91479 2.1736
rclavicle -1.45858e-014 6.95746e-016
rhumerus 39.8355 -2.54973 -63.0766
rradius 93.9289
rwrist 20.7424
rhand 1.20664 -13.9978
rfingers 7.12502
rthumb 26.7456 -42.1273
lclavicle -1.45858e-014 6.95746e-016
lhumerus 42.4435 -4.735 86.5783
lradius 87.5014
lwrist -35.6018
lhand -10.8573 2.03984
lfingers 7.12502
lthumb 15.1579 31.4647
rfemur -73.5999 -5.34342 21.3353
rtibia 108.428
rfoot -33.3447 -17.5199
rtoes -13.2139
lfemur -74.1496 11.8709 -18.2499
ltibia 107.473
lfoot -31.4755 16.4287
ltoes -13.5581
146
root -0.845029 11.4621 11.2733 9.11708 1.41421 -1.66832
lowerback 18.9952 1.57925 -2.35635
upperback -3.57815 1.69587 1.08618
thorax -14.9377 1.04574 2.04449
lowerneck -9.30902 -3.22701 -5.6083
upperneck 7.93894 -4.07321 4.97052
head 4.10856 -1.9148 2.17472
rclavicle 5.54112e-015 2.83268e-015
rhumerus 39.8514 -2.5667 -63.0716
rradius 93.9306
rwrist 20.7394
rhand 1.1963 -13.9963
rfingers 7.12502
rthumb 26.7357 -42.1273
lclavicle 5.54112e-015 2.83268e-015
lhumerus 42.4428 -4.72416 86.5863
lradius 87.5065
lwrist -35.5906
lhand -10.8816 2.04966
lfingers 7.12502
lthumb 15.1346 31.4763
rfemur -73.5966 -5.3572 21.3394
rtibia 108.437
rfoot -33.3454 -17.5333
rtoes -13.2373
lfemur -74.1468 11.8688 -18.2475
ltibia 107.477
lfoot -31.4784 16.4231
ltoes -13.561
147
root -0.84643 11.4614 11.2736 9.11355 1.42349 -1.66267
lowerback 18.9936 1.5774 -2.35779
upperback -3.57585 1.69294 1.08539
thorax -14.9338 1.04443 2.04537
lowerneck -9.30508 -3.22878 -5.61565
upperneck 7.94167 -4.07557 4.97708
head 4.10916 -1.91588 2.17781
rclavicle -6.40459e-015 -5.01931e-015
rhumerus 39.8684 -2.58337 -63.0668
rradius 93.9341
rwrist 20.7357
rhand 1.19375 -13.9944
rfingers 7.12502
rthumb 26.7333 -42.1258
lclavicle -6.40459e-015 -5.01931e-015
lhumerus 42.4431 -4.71311 86.5942
lradius 87.51
lwrist -35.584
lhand -10.9071 2.05424
lfingers 7.12502
lthumb 15.11 31.4827
rfemur -73.5939 -5.36873 21.3419
rtibia 108.445
rfoot -33.3471 -17.5463
rtoes -13.2579
lfemur -74.1445 11.8633 -18.245
ltibia 107.481
lfoot -31.4817 16.4194
ltoes -13.5492
148
root -0.847818 11.4608 11.2739 9.10972 1.43275 -1.65643
lowerback 18.9911 1.57485 -2.36106
upperback -3.57368 1.68871 1.08507
thorax -14.9296 1.04271 2.04825
lowerneck -9.29424 -3.23105 -5.62698
upperneck 7.93654 -4.07883 4.99024
head 4.10649 -1.91729 2.18364
rclavicle -5.77718e-016 1.68967e-014
rhumerus 39.8835 -2.59599 -63.0638
rradius 93.9373
rwrist 20.7329
rhand 1.19188 -13.9918
rfingers 7.12502
rthumb 26.7315 -42.1235
lclavicle -5.77718e-016 1.68967e-014
lhumerus 42.4422 -4.70112 86.5984
lradius 87.5142
lwrist -35.5814
lhand -10.9295 2.05463
lfingers 7.12502
lthumb 15.0884 31.4847
rfemur -73.5887 -5.3782 21.3419
rtibia 108.452
rfoot -33.3522 -17.5562
rtoes -13.2709
lfemur -74.1402 11.8538 -18.2422
ltibia 107.485
lfoot -31.4876 16.4165
ltoes -13.5121
149
root -0.849162 11.4598 11.2741 9.10852 1.43877 -1.65205
lowerback 18.9861 1.57323 -2.36472
upperback -3.57246 1.68583 1.08564
thorax -14.925 1.04171 2.05198
lowerneck -9.27852 -3.23318 -5.64414
upperneck 7.92495 -4.08203 5.01195
head 4.10134 -1.91846 2.19312
rclavicle 9.8212e-015 8.59744e-015
rhumerus 39.8952 -2.6067 -63.0597
rradius 93.94
rwrist 20.7299
rhand 1.1907 -13.9873
rfingers 7.12502
rthumb 26.7304 -42.1192
lclavicle 9.8212e-015 8.59744e-015
lhumerus 42.4419 -4.69028 86.5995
lradius 87.5204
lwrist -35.5812
lhand -10.934 2.05669
lfingers 7.12502
lthumb 15.084 31.4871
rfemur -73.5896 -5.38048 21.3423
rtibia 108.463
rfoot -33.3583 -17.5661
rtoes -13.2854
lfemur -74.1431 11.8451 -18.2385
ltibia 107.493
lfoot -31.4932 16.4156
ltoes -13.4788
150
root -0.850415 11.4586 11.2742 9.10952 1.44259 -1.64846
lowerback 18.9795 1.57173 -2.36833
upperback -3.57186 1.68313 1.08608
thorax -14.9203 1.04078 2.05548
lowerneck -9.26538 -3.23621 -5.65878
upperneck 7.9138 -4.0866 5.033
head 4.09677 -1.92024 2.20187
rclavicle -1.46604e-015 1.73937e-015
rhumerus 39.9047 -2.61518 -63.055
rradius 93.9398
rwrist 20.7283
rhand 1.18237 -13.9813
rfingers 7.12502
rthumb 26.7224 -42.1143
lclavicle -1.46604e-015 1.73937e-015
lhumerus 42.4406 -4.68091 86.5972
lradius 87.5272
lwrist -35.5826
lhand -10.9277 2.05458
lfingers 7.12502
lthumb 15.0901 31.4845
rfemur -73.5947 -5.37745 21.3417
rtibia 108.475
rfoot -33.365 -17.5734
rtoes -13.2976
lfemur -74.1504 11.8355 -18.235
ltibia 107.503
lfoot -31.4958 16.4228
ltoes -13.4496
